<svg viewBox="0 0 64 64" xml:space="preserve" xmlns="http://www.w3.org/2000/svg"><path d="M50.991 30.371c-.916-1.229-1.544-2.603-2.208-4.057a45.99 45.99 0 0 0-1.073-2.238 51.155 51.155 0 0 1-1.571-3.307c-.357-.815-1.07-1.182-1.913-.972-.496.123-.987.263-1.479.403-.465.133-.93.266-1.399.382-.815.203-1.639.329-2.51.463l-.695.108c-.874.14-1.782.386-2.773.751-.422.155-.876.241-1.356.332-.591.111-1.201.226-1.801.475-.153.035-.626-.154-.88-.253-.174-.067-.345-.133-.506-.186l-1.079-.353c-2.076-.682-4.224-1.387-6.407-1.899-.068-.016-.211-.107-.326-.18-.335-.213-.902-.571-1.559-.295-.566.237-.863.736-1.102 1.136-.082.138-.162.278-.258.397-.928 1.16-1.67 2.435-2.388 3.667-.556.955-1.13 1.942-1.775 2.841-.128.179-.246.364-.363.549-.174.275-.339.535-.537.756a4.533 4.533 0 0 0-.853 1.422.758.758 0 0 0-.852.595.75.75 0 0 0 .589.882c.046.009.095.015.16.022.97.867 2.111 1.26 3.217 1.64.527.181 1.025.353 1.496.571l.913.43c.876.416 1.783.847 2.715 1.208.07.027.138.05.208.077a.746.746 0 0 0-.656.521c-.335 1.07-.487 2.162-.634 3.219-.113.814-.22 1.582-.42 2.406-.064.262-.141.616-.096 1.001a.78.78 0 0 0-.292.491.802.802 0 0 0 .241.674c.264.254.65.261.934.053.326-.093.653-.184.98-.275.828-.23 1.656-.461 2.473-.732a52.734 52.734 0 0 0 2.233-.814c1.483-.566 2.885-1.102 4.381-1.387.176-.033.354-.077.534-.121.61-.15 1.002-.232 1.295-.041.926.6 1.908.956 2.832 1.252.535.172 1.044.432 1.582.705.607.309 1.234.629 1.939.84.253.075.51.143.767.211.679.179 1.319.348 1.881.663a.749.749 0 0 0 1.02-.286.729.729 0 0 0 .077-.462l.002-.004c.225-1.165.004-2.233-.209-3.267a14.012 14.012 0 0 1-.244-1.421 6.62 6.62 0 0 0-.144-.802c-.124-.563-.192-.924-.023-1.264a.751.751 0 0 0-1.344-.668c-.413.833-.237 1.622-.097 2.256.046.209.095.417.115.625.054.543.162 1.068.268 1.577.138.667.266 1.308.266 1.948a16.704 16.704 0 0 0-1.187-.348 24.623 24.623 0 0 1-.72-.197c-.574-.172-1.114-.447-1.688-.738-.567-.289-1.154-.589-1.805-.797-.825-.266-1.696-.579-2.474-1.083-.853-.556-1.749-.334-2.47-.157-.153.038-.306.076-.457.104-1.626.31-3.155.894-4.635 1.459-.721.274-1.44.55-2.171.793a48.44 48.44 0 0 1-2.335.69c.014-.063.024-.117.042-.189.202-.832.319-1.674.433-2.489.145-1.041.281-2.024.579-2.976a.743.743 0 0 0-.2-.758 37.632 37.632 0 0 0 4.502 1.356c.943.218 1.842.503 2.669.849.305.126.603.167.866.203.372.051.534.084.645.207a.75.75 0 0 0 .582.264c.304 0 .6-.151.779-.243 2.379-1.21 4.977-2.046 7.488-2.854a190.28 190.28 0 0 0 1.666-.54c2.12-.698 4.241-1.459 6.408-2.243.191-.069.388-.125.584-.181.507-.146 1.082-.311 1.596-.68a.755.755 0 0 0 .313-.586c.012-.296-.011-.738-.306-1.131zm-22.95 5.477a36.807 36.807 0 0 1-5.081-1.583c-.881-.342-1.763-.76-2.614-1.165l-.925-.435c-.541-.251-1.1-.443-1.64-.629-.817-.281-1.6-.55-2.265-.999.129-.432.342-.816.634-1.145.28-.313.486-.638.686-.953.102-.161.203-.321.314-.477.687-.957 1.28-1.976 1.854-2.961.722-1.24 1.403-2.411 2.263-3.485.138-.172.258-.369.376-.567.104-.176.23-.389.334-.481.067.035.163.095.232.139.21.133.471.299.787.373 2.12.498 4.236 1.192 6.282 1.864l1.083.354c.137.044.281.101.429.158.35.135.727.27 1.105.323.174 1.698.216 3.402.11 5.073-.064.995-.206 2.014-.343 2.998-.198 1.427-.403 2.901-.393 4.399 0 .059-.009.126-.02.195a1.49 1.49 0 0 1-.302-.072 18.254 18.254 0 0 0-2.906-.924zm20.937-4.519c-.229.065-.457.132-.68.212-2.156.78-4.267 1.537-6.368 2.229-.551.182-1.104.359-1.656.537-2.517.811-5.115 1.65-7.558 2.874.031-.17.056-.347.055-.54-.011-1.391.179-2.747.378-4.183.141-1.012.287-2.058.354-3.109a32.155 32.155 0 0 0-.127-5.438c.295-.077.598-.142.914-.202.52-.098 1.058-.199 1.598-.397a13.183 13.183 0 0 1 2.491-.677l.687-.107c.866-.133 1.763-.27 2.645-.49.486-.121.968-.258 1.449-.396.475-.135.948-.271 1.427-.389.062-.015.095-.015.099-.018a.464.464 0 0 1 .082.137 53.084 53.084 0 0 0 1.616 3.402c.369.701.709 1.444 1.037 2.163.642 1.405 1.306 2.856 2.252 4.168a7.463 7.463 0 0 1-.695.224z" fill="#919191" class="fill-000000"></path></svg>