<svg viewBox="0 0 64 64" xml:space="preserve" xmlns="http://www.w3.org/2000/svg"><path d="M43.18 42.77c-.223.025-.449.036-.674.054a30.36 30.36 0 0 0 .006-1.858c-.006-.354-.013-.721-.013-1.113.002-3.947.003-7.895-.003-11.841 0-.169-.019-.338-.035-.508.508-.034.911-.067 1.208-.411.306-.355.271-.771.216-1.439a1.99 1.99 0 0 0-.052-.298.752.752 0 0 0 .188-.873.743.743 0 0 0-.639-.43l-.013-.013c.042-.104.093-.212.146-.327.045-.097.091-.195.133-.293.701-1.627.229-4.142-.99-5.275-1.377-1.278-3.069-2.295-5.327-3.201-1.647-.661-2.837-1.419-3.286-2.974-.17-.582-.555-1.01-1.055-1.174a.748.748 0 0 0-.743.161 4.015 4.015 0 0 0-.74.89c-.969 1.584-2.133 2.657-3.561 3.28-.815.356-1.677.662-2.51.958l-.555.198c-1.193.428-2.866 1.206-3.608 3.015-.768 1.878-.694 3.493.204 4.927-.25.145-.509.34-.722.66a.75.75 0 0 0 .024.866c.018.039.015.199.013.295-.003.176-.003.354.022.524.117.81.618 1.236 1.449 1.23l.582-.017c-.025.509-.005 1.007.019 1.493.016.318.031.637.031.955a660.795 660.795 0 0 1-.031 5.268c-.012 1.475-.025 2.949-.029 4.424-.002.889.013 1.521.031 2.242l.012.528c-.194.011-.389.025-.583.032-.845.031-1.377.57-1.388 1.406l-.002.667c-.017 1.075.812 1.373 1.149 1.488-.421 1.067-.436 2.123.005 3.001.485.967 1.471 1.642 2.775 1.903 1.912.384 3.771.587 5.336.733.576.055 1.002.423 1.502.999a.746.746 0 0 0 .566.259c.011 0 .021-.005.033-.006.016.001.03.013.046.013a.756.756 0 0 0 .351-.087c1.12-.596 2.614-1.299 4.235-1.468 2.051-.212 3.624-.749 4.951-1.694.968-.689 1.104-1.514 1.012-2.537a2.386 2.386 0 0 0-.221-.769.733.733 0 0 0 .582-.063.749.749 0 0 0 .374-.742c.246-.62.195-1.218.112-1.73a.736.736 0 0 0 .296-.669.744.744 0 0 0-.829-.659zm-2.826.127c.009-.216.013-.443.01-.687-.005-.426.017-.852.037-1.277.032-.654.064-1.332.012-2.029l-.053-.662c-.123-1.532-.24-2.98-.048-4.436.197-1.497-.158-2.627-1.086-3.449a.739.739 0 0 0-1.433-.036c-1.248.868-1.726 2.115-1.439 3.813.092.547.042 1.15-.01 1.789a26.43 26.43 0 0 0-.047.627c-.101 1.726-.161 3.771.15 5.858.017.106.008.244.006.372-.25-.013-.501-.02-.752-.029a11.151 11.151 0 0 0-.085-.89 7.36 7.36 0 0 1-.087-.909l-.024-2.754c-.013-1.377-.024-2.754-.04-4.129a47.96 47.96 0 0 0-.03-1.139c-.011-.29-.021-.579-.026-.87-.013-.596-.198-1.028-.551-1.285a8.142 8.142 0 0 1-1.591-1.508c-.301-.373-.601-.433-.808-.424-.207.012-.513.116-.795.542-.373.558-.76 1.134-1.181 1.631-.552.652-.614 1.386-.612 1.882.008 2.701.007 5.402.007 8.104v1.654c-.17-.005-.343-.005-.518-.005.029-.436.021-.86.01-1.275l-.01-.359c-.016-.743.001-1.486.018-2.23.016-.685.03-1.369.021-2.054-.006-.517-.035-1.032-.063-1.549-.043-.753-.082-1.465-.052-2.181.038-.957-1.115-2.453-1.127-2.468-.016-.02-.037-.027-.053-.045a.603.603 0 0 0-.465-.183c-.021.002-.041-.006-.063-.002-.028.005-.047.021-.074.027-.021.007-.041.013-.061.022-.7.199-1.089.762-1.396 1.233-.094.144-.187.29-.292.417-.398.483-.341 1.057-.31 1.365.005.052.011.102.013.15.067 1.626.006 3.293-.053 4.903-.046 1.267-.094 2.577-.081 3.873 0 .087.012.173.017.259a37.71 37.71 0 0 0-.964.047l-.011-.477a72.091 72.091 0 0 1-.031-2.199c.004-1.473.017-2.945.029-4.417.015-1.76.029-3.52.031-5.28 0-.343-.016-.686-.033-1.028-.024-.503-.03-.981.002-1.451.401-.008.802-.024 1.205-.02.964.011 1.928.041 2.892.071.811.025 1.621.05 2.434.064.306.004.618-.019.928-.042.402-.031.783-.061 1.125-.013.625.087 1.245.116 1.858.116.62 0 1.232-.03 1.835-.059.628-.03 1.266-.064 1.884-.057.853-.002 1.631-.083 2.41-.168l.034-.003c.013.124.027.247.027.371.006 3.946.005 7.893.003 11.839 0 .403.007.778.014 1.142a27.96 27.96 0 0 1-.009 1.9 19.97 19.97 0 0 1-.648.007zm-2.424-.713c-.292-1.948-.232-3.896-.136-5.545.012-.197.027-.395.044-.593.058-.702.116-1.429-.007-2.16-.169-1.008.03-1.659.614-2.161.368.457.491 1.042.38 1.885-.214 1.614-.085 3.211.039 4.754l.052.654c.047.604.018 1.206-.014 1.844-.022.455-.044.91-.039 1.366.002.21-.016.428-.025.645l-.73-.021-.147-.006a3.842 3.842 0 0 0-.031-.662zm-6.819-9.291c0-.389.06-.592.239-.804.422-.498.793-1.039 1.171-1.598a9.4 9.4 0 0 0 1.641 1.531l.004.076c.005.299.016.599.027.897.013.364.025.728.029 1.093.015 1.376.027 2.751.039 4.126l.025 2.755c.003.4.053.773.103 1.134.028.21.053.411.069.608-.562-.009-1.123-.014-1.686-.017-.552-.004-1.104-.015-1.655-.022v-1.669c.002-2.703.003-5.407-.006-8.11zm-4.479 9.662c-.008-.09-.019-.179-.019-.271-.013-1.258.034-2.548.08-3.795.061-1.645.123-3.345.053-5.038-.004-.082-.012-.167-.02-.253-.008-.07-.02-.186-.039-.155.139-.169.263-.358.387-.547.159-.245.284-.42.414-.541.249.39.484.84.509.978-.035.8.01 1.587.053 2.35.027.491.056.981.062 1.472a57.61 57.61 0 0 1-.022 1.994c-.017.77-.033 1.538-.018 2.305l.01.374c.013.423.008.822-.026 1.209-.212-.007-.424-.014-.623-.033-.27-.027-.536-.04-.801-.049zm-3.969-22.69c.403-.981 1.218-1.63 2.726-2.171l.55-.196c.858-.305 1.745-.619 2.609-.997 1.685-.735 3.05-1.966 4.172-3.763.733 2.023 2.45 2.954 4.054 3.597 2.081.834 3.627 1.758 4.864 2.907.756.702 1.082 2.543.635 3.583l-.114.25a4.812 4.812 0 0 0-.285.708 11.55 11.55 0 0 0-.178.035c-.124.026-.246.056-.363.058-.878.01-1.756.04-2.634.071-1.694.058-3.446.119-5.16.02-1.442-.084-2.895-.023-4.3.035-.73.03-1.461.061-2.19.071-.436.006-.871.036-1.305.066-.772.053-1.502.103-2.222.018-.197-.023-.322-.079-.622-.49-.795-1.087-.867-2.26-.237-3.802zm-.403 5.634c.075-.041.165-.082.275-.131l.005-.002c.227.135.481.244.804.282.344.041.684.056 1.02.056.502 0 .996-.034 1.48-.067.408-.028.816-.056 1.224-.062a83.019 83.019 0 0 0 2.23-.073c1.37-.057 2.785-.115 4.15-.037 1.787.104 3.573.042 5.3-.018.866-.03 1.732-.06 2.601-.07.21-.003.429-.043.649-.089.154-.032.247-.046.319-.053.002.139.012.282.049.442.009.037.019.071.03.194l.012.133-.082.005-.148.01c-.471.032-.939.083-1.408.134-.771.084-1.502.165-2.237.159-.658-.011-1.311.027-1.966.059-1.182.057-2.296.111-3.414-.044-.5-.07-.982-.033-1.447.003-.265.02-.531.039-.787.038-.805-.014-1.608-.039-2.413-.063-.973-.03-1.946-.06-2.919-.071a56.039 56.039 0 0 0-2.353.039l-.942.021c-.005-.072-.001-.146 0-.218.004-.16.008-.361-.032-.577zm.146 18.95.003-.228c.485-.019.969-.051 1.452-.083 1.177-.078 2.29-.151 3.425-.043.578.057 1.182.053 1.765.054.32.001.635-.001.941.007.923.028 1.848.033 2.772.039.658.004 1.317.007 1.975.02.612.011 1.223.041 1.833.072.497.024.993.049 1.546.066 1.132.034 2.292.063 3.458.024.02.003.035.015.056.017a.821.821 0 0 0 .07.004c.052 0 .098-.018.146-.028.129-.005.258-.014.386-.021.041.257.062.471.047.654-.097.017-.196.04-.306.079-.472.173-.982.122-1.567.062-.349-.035-.699-.075-1.089-.061a5.06 5.06 0 0 1-.694-.057 6.077 6.077 0 0 0-.932-.07c-1.912.049-3.862-.014-5.749-.076-1.503-.051-3.054-.109-4.594-.096-.389.001-.777-.011-1.166-.022-.798-.024-1.623-.048-2.461.037a6.226 6.226 0 0 0-.41.06c-.344.057-.548.084-.763.013a1.394 1.394 0 0 1-.148-.057 7.43 7.43 0 0 0 .004-.366zm18.578 4.27c-1.122.798-2.428 1.236-4.235 1.423-1.661.173-3.136.801-4.316 1.398-.537-.542-1.207-1.022-2.122-1.108-1.527-.145-3.337-.342-5.182-.712-.854-.171-1.452-.554-1.729-1.105-.273-.543-.229-1.254.158-2.066a2.37 2.37 0 0 0 .1-.224c.074-.012.148-.024.222-.032.738-.075 1.479-.054 2.263-.03.405.013.811.027 1.216.023 1.509-.013 3.049.045 4.538.094 1.909.063 3.882.129 5.839.078.242-.004.466.027.698.057.295.039.585.079.93.069.289-.003.597.024.896.055.25.025.52.045.795.052.052.16.114.305.172.434.073.16.136.299.146.415.069.776-.045.933-.389 1.179z" fill="#ffffff" class="fill-000000"></path></svg>