<svg viewBox="0 0 64 64" xml:space="preserve" xmlns="http://www.w3.org/2000/svg"><path d="m39.612 39.43.112-.021c1.209-.22 2.46-.448 3.652-.911.855-.332 1.76-.596 2.637-.851.341-.1.682-.199 1.023-.304.434-.132.875-.241 1.316-.351 1.173-.291 2.379-.608 3.482-1.32.082.012.159.017.229.017.088 0 .164-.006.225-.012l.094-.006a.75.75 0 1 0-.078-1.498c-.029-.366-.057-.736-.084-1.11-.097-1.313-.197-2.67-.385-4.023-.114-.825-.174-1.682-.23-2.51-.043-.615-.086-1.23-.149-1.844-.136-1.313-.272-2.837-.186-4.32a5.204 5.204 0 0 0 0-.684c-.036-.623-.147-1.311-.693-1.684-.548-.374-1.239-.227-1.851-.027-.037.013-.136.02-.215.025a5.71 5.71 0 0 0-.232.021.761.761 0 0 0-.292.104 10.022 10.022 0 0 0-.063-.667c-.038-.312-.074-.604-.061-.878.041-.803-.58-1.106-.858-1.241-1.271-.624-2.621-.556-3.707-.497-2.585.13-5.042.7-7.3 1.697l-.531.229c-1.102.472-2.24.958-3.183 1.891a3.46 3.46 0 0 1-.14-.079 43.293 43.293 0 0 0-6.481-3.171c-2.088-.809-4.024-1.18-5.832-1.179-1.119.009-2.07.466-2.834.834-.824.397-.875 1.289-.891 1.581-.029.489-.072.977-.119 1.465-.036-.005-.07-.021-.106-.021-.287.022-.567-.106-.902-.242-.125-.05-.25-.101-.376-.146-.583-.213-.98-.072-1.21.083-.231.154-.512.47-.539 1.097a59.64 59.64 0 0 1-.234 3.032 62.94 62.94 0 0 0-.237 3.043c-.08 1.792-.25 3.386-.518 4.872-.204 1.127-.27 2.273-.334 3.382-.021.38-.043.76-.071 1.138-.067.917.396 1.543 1.304 1.762 1.681.408 3.366.952 4.997 1.478.743.24 1.485.479 2.23.708 1.728.53 3.492 1.024 5.199 1.502.964.27 1.928.539 2.887.816l.107.03c.208.061.402.121.587.187-.287.083-.575.163-.863.241-.471.129-.941.257-1.405.406-.818.262-1.632.54-2.447.817-1.563.534-3.18 1.086-4.788 1.506-2.249.587-4.393 1.454-6.471 2.32.003-.222.037-.459.074-.716.044-.303.085-.605.091-.908 0-.043.003-.077.007-.103a.779.779 0 0 1 .08.009c.844.141 1.736-.086 2.591-.64 1.943-1.266 3.082-2.666 3.583-4.409a.75.75 0 1 0-1.441-.414c-.401 1.395-1.314 2.494-2.958 3.564-.546.353-1.062.498-1.536.418-.664-.107-1.075.1-1.304.291-.337.283-.513.707-.521 1.259-.004.239-.041.479-.075.718-.077.528-.146 1.117.016 1.741a.747.747 0 0 0 .976.988l.395-.165c2.217-.927 4.51-1.886 6.874-2.503 1.661-.434 3.304-.995 4.893-1.537.806-.274 1.611-.55 2.42-.81.443-.142.892-.264 1.341-.386.339-.093.677-.185 1.015-.285l.1-.03c.332-.096.774-.225 1.134-.606h.042c.808-.024 1.565.264 2.358.551.72.262 1.464.492 2.209.722.52.16 1.04.32 1.553.493 1.056.354 2.122.774 3.151 1.18l.832.326c2.428.943 4.949 1.708 7.389 2.447l.811.249c.677.214 1.375.434 2.154.504.066.006.141.011.219.011.266 0 .585-.053.853-.285.378-.327.404-.812.413-.97.022-.41.049-.82.075-1.229l.071-1.144c.023-.445-.133-.849-.432-1.105a1.144 1.144 0 0 0-.982-.248c-1.115.229-1.815-.33-2.867-1.258l-.348-.303c-.424-.363-.765-.833-1.125-1.33a17.57 17.57 0 0 0-.76-.997c-.311-.48-.714-.677-1.203-.576a.751.751 0 0 0-.004 1.47c.031.046.064.089.098.129.234.271.443.563.654.854.396.546.805 1.11 1.363 1.589l.332.29c.934.822 2.079 1.838 3.759 1.662l-.054.87-.068 1.062c-.565-.068-1.116-.242-1.697-.426l-.827-.254c-2.411-.731-4.905-1.487-7.28-2.41l-.825-.323c-1.048-.412-2.132-.839-3.223-1.206-.524-.177-1.058-.341-1.589-.505a57.923 57.923 0 0 1-1.666-.543c.095-.022.19-.042.281-.07 2.144-.672 3.808-1.101 5.393-1.39zm-3.555-21.284.547-.236c2.09-.923 4.367-1.452 6.771-1.572 1.006-.05 2.047-.107 2.984.353l.001.001c-.001.333.038.646.075.949.026.211.054.422.062.635.062 1.511.106 3.021.151 4.533.052 1.701.103 3.403.176 5.103.016.342.002.684-.012 1.025-.024.634-.049 1.29.08 1.977.098.508.096 1.026.06 1.512-.252.011-.526-.031-.813-.076l-.332-.049a15.49 15.49 0 0 0-6.463.515 28.118 28.118 0 0 0-6.403 2.798c-.027.017-.054.021-.082.036.065-1.209.041-2.415.011-3.588-.027-1.096-.056-2.229-.004-3.331.076-1.629.061-3.279.045-4.875-.008-.856-.017-1.712-.011-2.568.002-.369.043-.737.083-1.106l.017-.163c.091-.058.181-.129.269-.221.747-.779 1.738-1.204 2.788-1.652zm-19.239 9.439c.123-1.214.168-2.44.211-3.627.019-.51.038-1.02.063-1.529.048-.979.156-1.979.26-2.946.097-.897.197-1.826.252-2.753.013-.237.051-.314.047-.317.799-.385 1.468-.68 2.192-.685 1.656.009 3.37.338 5.279 1.078a41.601 41.601 0 0 1 6.256 3.062l.121.069-.008.08c-.045.421-.09.841-.092 1.26-.005.863.003 1.728.011 2.591.015 1.576.031 3.205-.043 4.791-.055 1.155-.025 2.316.003 3.439.029 1.147.041 2.326-.022 3.486-.042-.021-.078-.029-.121-.053l-.472-.254c-.765-.413-1.557-.84-2.429-1.155-1.586-.57-3.227-.961-4.77-1.312-1.559-.355-3.034-.533-4.458-.533-.846 0-1.674.063-2.491.188a1.65 1.65 0 0 1-.176.02 1.579 1.579 0 0 1-.006-.212c.034-1.25.168-2.525.298-3.759l.095-.929zM28.494 39.17c-.965-.278-1.932-.549-2.9-.819-1.698-.476-3.453-.966-5.163-1.491-.739-.227-1.474-.464-2.21-.701-1.656-.535-3.369-1.087-5.104-1.509-.099-.023-.146-.048-.156-.048-.004-.018-.01-.062-.004-.147.028-.386.05-.772.072-1.159.062-1.064.125-2.165.312-3.201.281-1.554.458-3.213.541-5.072.045-.987.14-1.995.232-2.97.086-.912.175-1.853.23-2.846.025.01.049.021.074.03.406.164.868.35 1.417.346-.098.909-.195 1.84-.24 2.774-.025.515-.044 1.03-.063 1.546-.043 1.163-.087 2.365-.205 3.532l-.096.923c-.132 1.262-.269 2.566-.305 3.874-.007.24-.027.97.485 1.421.446.393 1.025.356 1.424.295 2-.304 4.089-.199 6.388.326 1.499.341 3.089.719 4.594 1.26.767.277 1.476.66 2.226 1.064l.479.258c.322.172.635.293.94.371a.743.743 0 0 0 .757.441.738.738 0 0 0 .582-.42c.31-.068.614-.172.912-.35a26.517 26.517 0 0 1 6.061-2.647 13.96 13.96 0 0 1 5.839-.464l.298.043c.448.07.987.154 1.549.04a.719.719 0 0 0 .173.021h.445a.75.75 0 0 0 .374-1.4 7.19 7.19 0 0 0-.084-1.857c-.099-.52-.078-1.063-.056-1.64.015-.383.028-.765.013-1.147-.074-1.693-.125-3.389-.176-5.083a532.121 532.121 0 0 0-.112-3.348.735.735 0 0 0 .435.091l.15-.014c.164-.012.367-.027.575-.097.269-.088.426-.117.512-.126.021.081.05.232.065.502.01.167.01.335 0 .503-.094 1.598.049 3.194.19 4.566.063.596.104 1.193.146 1.792.059.854.119 1.735.241 2.613.181 1.306.279 2.638.374 3.927.034.458.068.908.105 1.355-.851.497-1.816.754-2.838 1.008-.467.116-.936.232-1.394.372-.335.103-.67.2-1.005.298-.906.265-1.844.537-2.76.893-1.059.411-2.238.627-3.378.834l-.113.021c-1.647.301-3.367.744-5.575 1.437-.133.042-.271.07-.408.1-.456.098-1.058.249-1.526.764a6.613 6.613 0 0 0-1.269-.158l-.074.003c-.584-.5-1.27-.719-1.891-.898l-.105-.032z" fill="#919191" class="fill-000000"></path></svg>