<svg viewBox="0 0 64 64" xml:space="preserve" xmlns="http://www.w3.org/2000/svg"><path d="M49.059 16.617a.75.75 0 0 0-1.01.322c-.389.751-.576 1.589-.608 2.716a567.899 567.899 0 0 0-.139 6.656c-.014.874-.036 1.748-.058 2.622-.054 2.155-.109 4.384-.047 6.583.073 2.572.086 5.19.098 7.722l.003.636c.01 2.193-.725 3.008-2.913 3.229a62.783 62.783 0 0 1-4.859.309c-1.789.037-3.043-.913-4.363-1.969.386-1.141.61-2.539.64-4.082.033-1.674-.057-3.355-.145-4.982-.074-1.381-.151-2.808-.149-4.205 0-1.124.01-2.247.019-3.371.021-2.649.045-5.389-.061-8.089a48.898 48.898 0 0 1-.021-2.063c.006-1.489.012-3.03-.282-4.563a.75.75 0 0 0-1.473.282c.266 1.391.261 2.792.255 4.275-.003.71-.005 1.42.023 2.127.103 2.664.08 5.386.059 8.018-.009 1.128-.019 2.256-.019 3.382-.002 1.438.076 2.886.151 4.287.086 1.599.175 3.253.143 4.872-.027 1.486-.243 2.813-.622 3.836-.332.896-1.413 1.725-2.894 2.218-1.248.417-2.706.537-4.461.365-.891-.087-2.094-.521-2.258-3.258-.092-1.562.03-3.165.147-4.716.061-.795.121-1.59.156-2.387.007-.179.02-.355.033-.531.053-.738.113-1.575-.215-2.434l-.055-.154c.977-2.795.824-5.646.676-8.402-.025-.479-.051-.958-.071-1.436a.738.738 0 0 0-.781-.718.75.75 0 0 0-.718.781c.02.484.046.969.072 1.454.14 2.613.263 5.086-.496 7.497-1.556-.376-3.274-.328-5.372.196-2.732.682-5.473.492-8.626-.595-.205-.071-.558-.226-.614-.464-.05-.212.098-.538.368-.812.686-.696 1.447-1.292 2.299-1.943 1.747-1.334 3.659-2.515 5.508-3.658 1.843-1.139 3.748-2.316 5.522-3.66.345-.263.731-.393 1.097-.494a.749.749 0 1 0-.401-1.445c-.486.134-1.057.328-1.604.745-1.715 1.3-3.59 2.458-5.403 3.578-1.88 1.162-3.824 2.363-5.63 3.742-.898.687-1.703 1.317-2.457 2.082-.646.655-.93 1.48-.76 2.207.115.493.483 1.16 1.584 1.541 2.09.72 4.021 1.077 5.894 1.077 1.21 0 2.397-.149 3.586-.445 2.005-.502 3.589-.532 4.982-.123.203.547.164 1.116.117 1.777-.014.19-.027.383-.036.574-.034.78-.093 1.559-.152 2.338-.122 1.6-.248 3.254-.149 4.918.214 3.581 2.08 4.512 3.608 4.662.565.055 1.105.083 1.622.083 1.285 0 2.428-.172 3.462-.519 1.378-.459 2.475-1.172 3.175-2.025 1.389 1.097 2.87 2.131 4.969 2.131l.155-.002a64.752 64.752 0 0 0 4.975-.316c2.962-.299 4.276-1.756 4.263-4.729l-.003-.635c-.012-2.541-.024-5.167-.098-7.758-.062-2.158-.007-4.367.046-6.503.022-.878.044-1.756.059-2.634.037-2.213.075-4.426.139-6.638.025-.891.161-1.529.44-2.07a.751.751 0 0 0-.322-1.012zM57.227 29.311c-.02-.956-.039-1.911-.054-2.866-.018-1.104-.05-2.209-.082-3.314l-.049-1.745.001-.131c.006-.277.015-.741-.348-1.088-.241-.231-.572-.332-.983-.308a.734.734 0 0 0-.679.797c.02.307.232.558.51.656l-.001.112.05 1.75c.032 1.098.063 2.196.081 3.293.015.958.034 1.916.054 2.874.054 2.582.108 5.251.057 7.867a456.203 456.203 0 0 1-.107 4.216c-.084 2.893-.17 5.884-.134 8.837a.75.75 0 0 0 .75.741h.009a.752.752 0 0 0 .741-.76c-.035-2.922.05-5.898.133-8.775.04-1.41.081-2.819.108-4.229.051-2.646-.004-5.331-.057-7.927z" fill="#ffffff" class="fill-000000"></path></svg>